<?xml version="1.0" standalone="no"?>
<!DOCTYPE svg PUBLIC "-//W3C//DTD SVG 20010904//EN"
 "http://www.w3.org/TR/2001/REC-SVG-20010904/DTD/svg10.dtd">
<svg version="1.0" xmlns="http://www.w3.org/2000/svg"
 width="638.000000pt" height="638.000000pt" viewBox="0 0 638.000000 638.000000"
 preserveAspectRatio="xMidYMid meet">
<metadata>
Created by potrace 1.11, written by Peter Selinger 2001-2013
</metadata>
<g transform="translate(0.000000,638.000000) scale(0.100000,-0.100000)"
fill="#000000" stroke="none">
<path d="M2905 4077 c-111 -29 -197 -95 -238 -185 -31 -67 -30 -180 1 -243 51
-105 129 -152 326 -199 182 -44 226 -70 226 -136 0 -76 -99 -133 -209 -120
-64 8 -153 44 -144 59 3 6 1 7 -5 3 -15 -9 -44 7 -94 52 l-40 36 -40 -44 c-22
-25 -52 -58 -67 -75 -26 -29 -52 -67 -36 -53 4 4 29 -10 54 -31 138 -115 332
-176 482 -152 121 20 228 91 277 185 23 44 27 63 27 141 0 97 -9 124 -69 198
-42 53 -147 102 -285 132 -169 38 -208 59 -218 119 -5 31 -1 39 28 67 43 40
68 49 132 49 63 -1 146 -33 215 -83 l49 -37 66 78 67 77 -38 33 c-121 109
-325 165 -467 129z"/>
<path d="M1980 3975 l0 -105 130 0 130 0 0 -447 c0 -413 -2 -451 -19 -488 -36
-79 -105 -125 -188 -125 -49 0 -117 27 -140 57 -10 13 -21 9 -83 -36 -41 -30
-76 -49 -83 -45 -7 4 -9 4 -5 -1 4 -4 3 -14 -4 -22 -17 -21 43 -78 131 -121
65 -32 84 -37 165 -40 74 -3 103 0 155 18 130 44 215 129 266 265 18 46 19 92
23 623 l3 572 -240 0 -241 0 0 -105z"/>
<path d="M4209 3432 c-88 -42 -99 -55 -99 -122 0 -75 24 -110 63 -93 26 12 43
57 33 90 -4 14 7 23 42 40 l46 22 141 -68 c154 -74 210 -118 220 -175 10 -52
3 -71 -28 -74 -24 -3 -27 -7 -27 -42 l0 -39 90 31 90 30 0 47 c0 26 -6 69 -14
95 -29 97 -80 142 -186 166 -30 7 -101 36 -157 66 -56 30 -115 54 -130 54 -15
-1 -53 -13 -84 -28z"/>
<path d="M4248 3334 c-23 -12 -28 -21 -28 -52 0 -43 -29 -82 -60 -82 -37 0
-60 35 -60 91 l0 52 -44 -5 c-24 -3 -62 -16 -83 -29 -21 -13 -42 -22 -48 -21
-5 2 -7 1 -3 -3 3 -4 -4 -28 -18 -54 -19 -40 -51 -189 -42 -196 2 -1 18 -7 36
-13 28 -10 35 -9 52 8 22 22 42 25 70 10 15 -8 24 -6 40 10 24 24 62 26 80 5
9 -11 23 -14 45 -9 38 7 75 -21 75 -56 0 -14 7 -20 23 -20 40 0 61 -33 54 -83
-7 -46 4 -67 33 -67 31 0 51 35 48 81 -3 41 -7 46 -66 87 -35 24 -61 47 -58
49 7 7 108 -65 121 -86 6 -9 12 -27 15 -41 7 -36 44 -39 66 -5 14 21 15 34 8
63 -9 35 -49 73 -155 144 -13 9 -22 18 -19 21 3 2 43 -23 90 -57 71 -51 86
-68 95 -101 22 -76 65 -53 65 34 0 67 -1 68 -127 155 -46 32 -83 60 -83 62 0
12 208 -134 218 -153 5 -8 19 -13 33 -11 51 7 32 88 -33 140 -46 36 -271 148
-296 148 -9 -1 -29 -8 -44 -16z"/>
<path d="M4071 3041 c-26 -26 -37 -86 -20 -107 18 -22 62 -14 76 16 23 49 25
76 8 94 -22 21 -41 20 -64 -3z"/>
<path d="M3962 3028 c-31 -31 -3 -82 40 -76 17 2 24 11 26 33 5 43 -38 71 -66
43z"/>
<path d="M4171 3021 c-19 -19 -38 -112 -26 -131 9 -15 51 -12 69 5 13 14 36
75 36 98 0 11 -38 47 -50 47 -5 0 -19 -9 -29 -19z"/>
<path d="M4255 2936 c-29 -29 -32 -58 -9 -80 29 -30 68 -10 80 41 14 55 -31
79 -71 39z"/>
<path d="M1850 2385 c0 -16 6 -25 15 -25 9 0 15 9 15 25 0 16 -6 25 -15 25 -9
0 -15 -9 -15 -25z"/>
<path d="M3317 2403 c-2 -5 -3 -48 -2 -98 1 -85 2 -90 23 -93 20 -3 22 1 22
43 0 39 3 46 18 43 12 -2 18 -15 20 -46 3 -34 7 -42 23 -42 16 0 19 7 19 45 0
50 -25 85 -60 85 -16 0 -20 7 -20 35 0 28 -4 35 -19 35 -11 0 -21 -3 -24 -7z"/>
<path d="M1470 2305 l0 -95 70 0 c63 0 70 2 70 20 0 17 -7 20 -50 20 l-50 0 0
75 c0 68 -2 75 -20 75 -19 0 -20 -7 -20 -95z"/>
<path d="M1760 2361 c0 -11 -6 -21 -12 -24 -10 -3 -10 -9 0 -26 6 -11 12 -32
12 -45 0 -31 25 -56 56 -56 30 0 33 30 4 37 -13 3 -20 14 -20 28 0 14 7 25 20
28 11 3 20 10 20 17 0 7 -9 14 -20 17 -11 3 -20 14 -20 24 0 12 -7 19 -20 19
-13 0 -20 -7 -20 -19z"/>
<path d="M2696 2348 c-6 -38 6 -101 24 -123 19 -23 60 -19 60 5 0 13 -7 20
-20 20 -15 0 -20 7 -20 25 0 18 5 25 20 25 13 0 20 7 20 20 0 13 -7 20 -20 20
-13 0 -20 7 -20 20 0 35 -37 25 -44 -12z"/>
<path d="M3216 2349 c-6 -33 8 -105 26 -126 17 -21 58 -16 58 7 0 13 -7 20
-20 20 -15 0 -20 7 -20 25 0 18 5 25 20 25 13 0 20 7 20 20 0 13 -7 20 -20 20
-13 0 -20 7 -20 20 0 34 -36 25 -44 -11z"/>
<path d="M1636 2324 c-22 -21 -20 -77 2 -97 21 -20 45 -21 73 -6 27 14 8 38
-25 32 -13 -3 -27 0 -30 6 -5 7 8 11 38 11 50 0 57 10 30 48 -18 26 -65 30
-88 6z m59 -24 c3 -6 -4 -10 -17 -10 -18 0 -20 2 -8 10 19 12 18 12 25 0z"/>
<path d="M1912 2328 c-15 -15 -16 -45 -2 -53 8 -5 7 -11 -1 -21 -28 -34 43
-61 76 -28 21 21 16 46 -13 60 -33 16 -36 22 -7 17 18 -4 25 -1 25 10 0 26
-56 37 -78 15z m45 -74 c-3 -3 -12 -4 -19 -1 -8 3 -5 6 6 6 11 1 17 -2 13 -5z"/>
<path d="M2090 2320 c-40 -40 -11 -110 46 -110 16 0 24 -5 21 -12 -2 -8 -17
-12 -35 -11 -17 2 -34 -2 -38 -8 -19 -31 64 -43 96 -14 17 15 20 31 20 97 l0
78 -45 0 c-32 0 -51 -6 -65 -20z m68 -43 c4 -20 -25 -34 -40 -19 -15 15 -1 44
19 40 10 -2 19 -11 21 -21z"/>
<path d="M2220 2274 c0 -57 2 -64 20 -64 17 0 20 7 20 41 0 32 4 42 20 46 11
3 20 13 20 23 0 14 -9 18 -40 18 l-40 1 0 -65z"/>
<path d="M2332 2324 c-28 -19 -30 -74 -4 -97 25 -23 68 -21 92 3 58 58 -20
142 -88 94z m63 -49 c0 -13 -8 -21 -22 -23 -19 -3 -23 1 -23 23 0 22 4 26 23
23 14 -2 22 -10 22 -23z"/>
<path d="M2454 2303 c15 -86 18 -93 35 -93 10 0 23 12 30 27 12 27 13 27 27 8
8 -10 14 -22 14 -27 0 -4 9 -8 19 -8 15 0 22 11 30 50 15 70 14 80 -9 80 -15
0 -20 -7 -20 -25 0 -14 -4 -25 -10 -25 -5 0 -10 5 -10 10 0 6 -9 10 -19 10
-11 0 -23 -4 -26 -10 -11 -18 -25 -10 -25 15 0 19 -5 25 -21 25 -19 0 -21 -4
-15 -37z"/>
<path d="M2810 2320 c-41 -41 -10 -110 48 -110 36 0 62 28 62 67 0 57 -69 84
-110 43z m73 -32 c7 -21 -4 -38 -23 -38 -23 0 -34 16 -26 35 7 18 43 20 49 3z"/>
<path d="M2951 2313 c-14 -17 -19 -34 -15 -47 9 -31 45 -58 71 -53 13 2 23 1
23 -4 0 -13 -23 -24 -49 -24 -32 0 -39 -23 -10 -34 33 -12 72 1 86 30 7 13 13
54 13 92 l0 67 -49 0 c-42 0 -53 -4 -70 -27z m72 -25 c7 -21 -4 -38 -23 -38
-10 0 -20 6 -23 13 -7 20 4 37 23 37 10 0 20 -6 23 -12z"/>
<path d="M3096 2318 c-45 -63 19 -138 80 -94 17 13 17 15 3 21 -9 3 -20 5 -25
4 -19 -3 -34 1 -34 11 0 6 18 10 40 10 32 0 40 4 40 18 0 48 -76 70 -104 30z
m59 -18 c3 -6 -4 -10 -17 -10 -18 0 -20 2 -8 10 19 12 18 12 25 0z"/>
<path d="M3470 2320 c-23 -23 -25 -42 -9 -73 20 -37 56 -48 88 -28 12 8 13 12
2 25 -10 12 -17 13 -26 6 -9 -7 -16 -6 -25 5 -11 13 -6 15 34 15 50 0 51 1 35
33 -23 43 -66 50 -99 17z m55 -20 c3 -6 -4 -10 -17 -10 -18 0 -20 2 -8 10 19
12 18 12 25 0z"/>
<path d="M3590 2274 c0 -57 2 -64 20 -64 17 0 20 7 20 41 0 32 4 42 20 46 11
3 20 13 20 23 0 14 -9 18 -40 18 l-40 1 0 -65z"/>
</g>
</svg>
